<?xml version="1.0" encoding="UTF-8"?>
<!DOCTYPE svg PUBLIC "-//W3C//DTD SVG 1.1//EN" "http://www.w3.org/Graphics/SVG/1.1/DTD/svg11.dtd">
<!-- Creator: CorelDRAW -->
<svg xmlns="http://www.w3.org/2000/svg" xml:space="preserve" width="750px" height="212px" version="1.1" style="shape-rendering:geometricPrecision; text-rendering:geometricPrecision; image-rendering:optimizeQuality; fill-rule:evenodd; clip-rule:evenodd"
viewBox="0 0 750 212.03"
 xmlns:xlink="http://www.w3.org/1999/xlink"
 xmlns:xodm="http://www.corel.com/coreldraw/odm/2003">
 <defs>
  <style type="text/css">
   <![CDATA[
    .fil0 {fill:url(#id0)}
    .fil1 {fill:url(#id1)}
    .fil4 {fill:url(#id2)}
    .fil2 {fill:url(#id3)}
    .fil5 {fill:url(#id4)}
    .fil3 {fill:url(#id5)}
    .fil8 {fill:url(#id6)}
    .fil7 {fill:url(#id7)}
    .fil9 {fill:url(#id8)}
    .fil6 {fill:url(#id9)}
   ]]>
  </style>
  <linearGradient id="id0" gradientUnits="userSpaceOnUse" x1="332.92" y1="48.78" x2="332.92" y2="161.96">
   <stop offset="0" style="stop-opacity:1; stop-color:#383838"/>
   <stop offset="1" style="stop-opacity:1; stop-color:#1E1E1E"/>
  </linearGradient>
  <linearGradient id="id1" gradientUnits="userSpaceOnUse" xlink:href="#id0" x1="431.95" y1="79.82" x2="431.95" y2="163.25">
  </linearGradient>
  <linearGradient id="id2" gradientUnits="userSpaceOnUse" xlink:href="#id0" x1="617.73" y1="79.82" x2="617.73" y2="163.25">
  </linearGradient>
  <linearGradient id="id3" gradientUnits="userSpaceOnUse" xlink:href="#id0" x1="509.24" y1="60.26" x2="509.24" y2="161.96">
  </linearGradient>
  <linearGradient id="id4" gradientUnits="userSpaceOnUse" xlink:href="#id0" x1="708.85" y1="79.82" x2="708.85" y2="161.96">
  </linearGradient>
  <linearGradient id="id5" gradientUnits="userSpaceOnUse" xlink:href="#id0" x1="557.02" y1="48.78" x2="557.02" y2="161.96">
  </linearGradient>
  <linearGradient id="id6" gradientUnits="userSpaceOnUse" x1="132.42" y1="208.15" x2="239.18" y2="33.67">
   <stop offset="0" style="stop-opacity:1; stop-color:#116EB8"/>
   <stop offset="1" style="stop-opacity:1; stop-color:#0D0633"/>
  </linearGradient>
  <linearGradient id="id7" gradientUnits="userSpaceOnUse" xlink:href="#id6" x1="168.98" y1="96.51" x2="125.14" y2="21.11">
  </linearGradient>
  <linearGradient id="id8" gradientUnits="userSpaceOnUse" xlink:href="#id6" x1="91.22" y1="112.13" x2="135.06" y2="178.1">
  </linearGradient>
  <linearGradient id="id9" gradientUnits="userSpaceOnUse" xlink:href="#id6" x1="127.78" y1="3.88" x2="21.02" y2="178.36">
  </linearGradient>
 </defs>
 <g id="katman_x0020_1">
  <metadata id="CorelCorpID_0Corel-Layer"/>
  <g id="_105553127645088">
   <g>
    <path class="fil0" d="M357.57 48.78l23.61 0 0 84.72 -23.61 -16.98 0 -67.74zm-49.31 0l72.92 105.1 0 8.08 -23.61 0 -49.31 -71.14 0 71.14 -23.61 0 0 -113.18 23.61 0z"/>
    <path class="fil1" d="M415.7 83.14c-5.12,2.21 -9.57,5.2 -13.34,8.97 -3.77,3.77 -6.76,8.19 -8.97,13.26 -2.21,5.07 -3.32,10.51 -3.32,16.33 0,5.71 1.11,11.1 3.32,16.17 2.21,5.07 5.2,9.49 8.97,13.26 3.77,3.77 8.22,6.74 13.34,8.89 5.12,2.16 10.59,3.23 16.41,3.23 6.68,0 13.02,-1.52 19,-4.56 5.99,-3.04 10.92,-7.28 14.8,-12.72l0.32 -0.33 -18.75 -8.26 -0.33 -0.16 -0.16 0.16c-2.16,2.81 -4.45,4.61 -6.87,5.42 -2.43,0.81 -5.1,1.21 -8.01,1.21 -3.23,0 -6.14,-0.72 -8.73,-2.17 -2.59,-1.45 -4.8,-3.25 -6.63,-5.4 -1.83,-2.15 -3.23,-4.53 -4.2,-7.17 -0.97,-2.63 -1.46,-5.18 -1.46,-7.65 0,-3.22 0.54,-6.2 1.62,-8.94 1.08,-2.74 2.56,-5.11 4.45,-7.09 1.88,-1.99 4.12,-3.57 6.71,-4.75 2.58,-1.19 5.33,-1.78 8.24,-1.78 4.75,0 8.87,1.46 12.37,4.37 3.5,2.91 6.01,6.63 7.52,11.15l-30.72 0 10.35 16.5 41.07 0 0.16 -0.33c0.65,-2.91 0.97,-5.92 0.97,-9.05 0,-5.82 -1.11,-11.26 -3.31,-16.33 -2.22,-5.07 -5.21,-9.49 -8.98,-13.26 -3.77,-3.77 -8.19,-6.76 -13.26,-8.97 -5.07,-2.21 -10.45,-3.32 -16.17,-3.32 -5.82,0 -11.29,1.11 -16.41,3.32z"/>
    <path class="fil2" d="M513.44 60.26l-21.5 0 0 29.26 -11.64 0 0 17.95 11.64 0 0 24.26c0,4.2 0.81,8.13 2.42,11.8 1.62,3.66 3.8,6.87 6.55,9.62 2.75,2.75 5.98,4.9 9.7,6.47 3.72,1.56 7.68,2.34 11.89,2.34l15.68 0 0 -18.76 -15.68 0c-2.48,0 -4.61,-0.86 -6.39,-2.58 -1.78,-1.73 -2.67,-3.83 -2.67,-6.31l0 -74.05zm2.75 29.26l10.03 17.95 11.96 0 0 -17.95 -21.99 0z"/>
    <polygon class="fil3" points="567.77,161.96 567.77,48.78 546.43,48.78 546.27,161.96 "/>
    <path class="fil4" d="M601.48 83.14c-5.12,2.21 -9.57,5.2 -13.34,8.97 -3.77,3.77 -6.76,8.19 -8.97,13.26 -2.21,5.07 -3.31,10.51 -3.31,16.33 0,5.71 1.1,11.1 3.31,16.17 2.21,5.07 5.2,9.49 8.97,13.26 3.77,3.77 8.22,6.74 13.34,8.89 5.12,2.16 10.59,3.23 16.41,3.23 6.69,0 13.02,-1.52 19,-4.56 5.99,-3.04 10.92,-7.28 14.8,-12.72l0.32 -0.33 -18.75 -8.26 -0.33 -0.16 -0.16 0.16c-2.16,2.81 -4.45,4.61 -6.87,5.42 -2.43,0.81 -5.1,1.21 -8.01,1.21 -3.23,0 -6.14,-0.72 -8.73,-2.17 -2.58,-1.45 -4.79,-3.25 -6.63,-5.4 -1.83,-2.15 -3.23,-4.53 -4.2,-7.17 -0.97,-2.63 -1.46,-5.18 -1.46,-7.65 0,-3.22 0.54,-6.2 1.62,-8.94 1.08,-2.74 2.56,-5.11 4.45,-7.09 1.88,-1.99 4.12,-3.57 6.71,-4.75 2.59,-1.19 5.33,-1.78 8.24,-1.78 4.75,0 8.87,1.46 12.37,4.37 3.5,2.91 6.01,6.63 7.52,11.15l-30.72 0 10.35 16.5 41.07 0 0.16 -0.33c0.65,-2.91 0.97,-5.92 0.97,-9.05 0,-5.82 -1.1,-11.26 -3.31,-16.33 -2.21,-5.07 -5.21,-9.49 -8.98,-13.26 -3.77,-3.77 -8.19,-6.76 -13.26,-8.97 -5.06,-2.21 -10.45,-3.32 -16.17,-3.32 -5.82,0 -11.29,1.11 -16.41,3.32z"/>
    <path class="fil5" d="M750 161.96l0 -40.1c0,-7.44 -0.6,-13.69 -1.78,-18.75 -1.19,-5.07 -3.13,-9.28 -5.82,-12.62 -5.5,-7.11 -14.72,-10.67 -27.65,-10.67 -8.41,0 -15.42,2.51 -21.02,7.54l-0.16 0.16 7.92 13.97 0.16 0.16 0 -0.16c3.24,-1.62 6.74,-2.43 10.51,-2.43 3.99,0 7.06,0.6 9.22,1.79 2.15,1.19 3.72,2.83 4.69,4.94 0.97,2.11 1.53,4.54 1.7,7.29 0.16,2.76 0.24,5.65 0.24,8.68l0 40.2 21.99 0zm-82.3 0l21.99 0 0 -80.84 -21.99 0 0 80.84zm0 -80.85l0 0 0 0z"/>
   </g>
   <g>
    <path class="fil6" d="M74.32 22.31l-74.32 128.3 51.57 0 53.84 -92.95 17.1 -29.51c0,0 16.54,-27.74 32.61,0l-3.38 -5.84c-8,-13.81 -22.75,-22.31 -38.71,-22.31 -15.96,0 -30.71,8.5 -38.71,22.31z"/>
    <path class="fil7" d="M122.51 28.15c-3.16,5.45 -6.32,10.91 -9.48,16.36l45.84 79.14 25.79 -44.52 -29.54 -50.98c-5.35,-9.25 -10.76,-12.33 -15.59,-12.33 -9.67,0 -17.02,12.33 -17.02,12.33z"/>
    <path class="fil8" d="M208.63 61.42l-53.85 92.95 -17.09 29.51c0,0 -16.54,27.74 -32.61,0l3.38 5.84c8,13.81 22.75,22.31 38.71,22.31 15.96,0 30.71,-8.5 38.71,-22.31l74.32 -128.3 -51.57 0z"/>
    <path class="fil9" d="M75.54 132.89l29.54 50.99c16.07,27.74 32.61,0 32.61,0 3.16,-5.45 6.32,-10.91 9.48,-16.36l-45.84 -79.14 -25.79 44.51z"/>
   </g>
  </g>
 </g>
</svg>
